<svg width="50" height="45" viewBox="0 0 50 45" fill="none" xmlns="http://www.w3.org/2000/svg">
<path d="M47.9492 7.7846C47.4609 7.7846 46.7855 7.99386 45.9229 8.41239C45.0602 8.83091 43.5872 9.62612 41.5039 10.798L39.7949 12.7065C40.3483 13.0748 40.625 13.4766 40.625 13.9118C40.625 15.1842 40.4704 16.3058 40.1611 17.2768C39.8519 18.2478 39.4043 19.3108 38.8184 20.466C38.2324 21.6211 37.793 22.6507 37.5 23.5547C36.4583 26.8359 35.2783 29.0876 33.96 30.3097C32.6416 31.5318 30.6966 32.1429 28.125 32.1429C25.5208 32.1429 23.3073 31.2054 21.4844 29.3304C19.6615 27.4554 18.75 25.1786 18.75 22.5C18.75 19.8549 19.3441 17.8544 20.5322 16.4983C21.7204 15.1423 23.9095 13.9286 27.0996 12.8571C27.946 12.5558 28.9307 12.1122 30.0537 11.5262C31.1768 10.9403 32.2184 10.4799 33.1787 10.1451C34.139 9.81027 35.2376 9.64286 36.4746 9.64286L38.3301 7.53348C39.5671 4.62054 40.1855 2.8125 40.1855 2.10937C40.1855 1.54018 40.3564 1.04632 40.6982 0.62779C41.04 0.209263 41.4632 0 41.9678 0C42.4723 0 42.8955 0.209263 43.2373 0.62779C43.5791 1.04632 43.75 1.54018 43.75 2.10937C43.75 2.34375 43.5059 2.79576 43.0176 3.4654C43.3105 4.16853 43.5547 4.62054 43.75 4.82143C44.043 5.12277 44.7591 5.12277 45.8984 4.82143C46.9727 3.75 47.64 3.21429 47.9004 3.21429C48.4863 3.21429 48.9827 3.44029 49.3896 3.8923C49.7965 4.34431 50 4.88839 50 5.52455C50 6.16071 49.7965 6.69643 49.3896 7.1317C48.9827 7.56696 48.5026 7.7846 47.9492 7.7846ZM15.625 22.952C15.625 26.3672 16.805 29.2885 19.165 31.716C21.5251 34.1434 24.3652 35.3571 27.6855 35.3571C30.9733 35.3571 33.4635 34.5703 35.1562 32.9967C36.849 31.423 38.3789 28.5435 39.7461 24.3583C40.1042 23.1529 40.7715 21.5625 41.748 19.5871C44.3197 21.9308 46.3379 24.4671 47.8027 27.1959C49.2676 29.9247 50 32.6451 50 35.3571C50 37.433 48.8607 39.2076 46.582 40.6808C44.3034 42.154 41.3167 43.2422 37.6221 43.9453C33.9274 44.6484 29.7201 45 25 45C22.0378 45 19.3929 44.8996 17.0654 44.6987C14.738 44.4978 12.4756 44.1127 10.2783 43.5435C8.08105 42.9743 6.25814 42.221 4.80957 41.2835C3.361 40.346 2.19727 39.1071 1.31836 37.567C0.439453 36.0268 0 34.2187 0 32.1429C0 29.6987 0.447591 27.2879 1.34277 24.9107C2.23796 22.5335 3.39355 20.4492 4.80957 18.6579C6.22559 16.8666 7.77181 15.2762 9.44824 13.8867C11.1247 12.4972 12.7767 11.4425 14.4043 10.7227C16.0319 10.0028 17.4805 9.64286 18.75 9.64286C20.8333 9.64286 23.112 9.96094 25.5859 10.5971C22.2331 12.0033 19.7347 13.6775 18.0908 15.6194C16.4469 17.5614 15.625 20.0056 15.625 22.952Z" fill="#ff9f0d"/>
</svg>
