<svg width="20" height="18" viewBox="0 0 20 18" fill="none" xmlns="http://www.w3.org/2000/svg">
<path d="M19.9907 4.15782C19.9014 6.18373 18.5443 8.95774 15.9104 12.4799C13.1917 16.16 10.8926 18 9.00875 18C7.8436 18 6.85701 16.8802 6.04899 14.6405C4.47759 8.63713 3.80796 5.11966 2.50888 5.11966C2.3571 5.11966 1.83479 5.44957 0.937482 6.10009L0 4.83622C2.30353 2.73131 4.50438 0.389434 5.88381 0.25933C7.44182 0.101346 8.39716 1.21188 8.75876 3.58164C10.04 12.0152 10.6069 13.2884 12.9372 9.46887C13.7721 8.09348 14.2229 7.04799 14.2854 6.32777C14.4997 4.19499 12.6873 4.33903 11.4596 4.88733C12.4417 1.53714 14.3212 -0.0891643 17.0934 0.00376741C19.138 0.0595265 20.1068 1.44886 19.9907 4.15782V4.15782Z" fill="black"/>
</svg>
